<svg width="24" height="24" viewBox="0 0 24 24" fill="none" xmlns="http://www.w3.org/2000/svg">
<path fill-rule="evenodd" clip-rule="evenodd" d="M8.75161 17.6484C8.52665 17.4234 8.40027 17.1182 8.40027 16.8C8.40027 16.4818 8.52665 16.1766 8.75161 15.9516L12.7032 12L8.75161 8.04839C8.53302 7.82207 8.41207 7.51895 8.4148 7.20431C8.41754 6.88968 8.54374 6.5887 8.76623 6.36621C8.98872 6.14372 9.28969 6.01752 9.60433 6.01479C9.91897 6.01205 10.2221 6.13301 10.4484 6.35159L15.2484 11.1516C15.4734 11.3766 15.5998 11.6818 15.5998 12C15.5998 12.3182 15.4734 12.6234 15.2484 12.8484L10.4484 17.6484C10.2234 17.8734 9.91821 17.9997 9.60001 17.9997C9.28181 17.9997 8.97665 17.8734 8.75161 17.6484Z" fill="white"/>
</svg>
