<svg width="8" height="8" viewBox="0 0 8 8" fill="none" xmlns="http://www.w3.org/2000/svg">
<path d="M0.799988 2.4C0.799988 2.18783 0.884273 1.98434 1.0343 1.83431C1.18433 1.68428 1.38781 1.6 1.59999 1.6H3.99999C4.21216 1.6 4.41564 1.68428 4.56567 1.83431C4.7157 1.98434 4.79999 2.18783 4.79999 2.4V5.6C4.79999 5.81217 4.7157 6.01565 4.56567 6.16568C4.41564 6.31571 4.21216 6.4 3.99999 6.4H1.59999C1.38781 6.4 1.18433 6.31571 1.0343 6.16568C0.884273 6.01565 0.799988 5.81217 0.799988 5.6V2.4ZM5.82119 2.8424C5.75476 2.87559 5.69888 2.92663 5.65981 2.98979C5.62074 3.05295 5.60003 3.12573 5.59999 3.2V4.8C5.60003 4.87426 5.62074 4.94705 5.65981 5.01021C5.69888 5.07337 5.75476 5.1244 5.82119 5.1576L6.62119 5.5576C6.68216 5.58806 6.7499 5.60245 6.81799 5.59938C6.88607 5.59631 6.95225 5.5759 7.01023 5.54008C7.06821 5.50425 7.11608 5.45421 7.14929 5.39469C7.1825 5.33517 7.19995 5.26816 7.19999 5.2V2.8C7.19995 2.73184 7.1825 2.66483 7.14929 2.60531C7.11608 2.54579 7.06821 2.49574 7.01023 2.45992C6.95225 2.4241 6.88607 2.40368 6.81799 2.40062C6.7499 2.39755 6.68216 2.41193 6.62119 2.4424L5.82119 2.8424Z" fill="#18181B"/>
</svg>
